<svg width="48" height="48" viewBox="0 0 48 48" fill="none" xmlns="http://www.w3.org/2000/svg"><path d="M30 16H18C16.8954 16 16 16.8954 16 18V30C16 31.1046 16.8954 32 18 32H30C31.1046 32 32 31.1046 32 30V18C32 16.8954 31.1046 16 30 16Z" stroke="#E6E6E6" stroke-width="2" stroke-linecap="round" stroke-linejoin="round"/><path d="M20 23V28M20 20V20.01M24 28V23M28 28V25C28 24.4696 27.7893 23.9609 27.4142 23.5858C27.0391 23.2107 26.5304 23 26 23C25.4696 23 24.9609 23.2107 24.5858 23.5858C24.2107 23.9609 24 24.4696 24 25" stroke="#E6E6E6" stroke-width="2" stroke-linecap="round" stroke-linejoin="round"/><rect x="0.5" y="0.5" width="47" height="47" rx="23.5" stroke="#E6E6E6"/></svg>