<svg width="48" height="48" viewBox="0 0 48 48" fill="none" xmlns="http://www.w3.org/2000/svg"><path d="M21 31C16.7 32.4 16.7 28.5 15 28M27 33V29.5C27 28.5 27.1 28.1 26.5 27.5C29.3 27.2 32 26.1 32 21.5C31.9988 20.3049 31.5325 19.1573 30.7 18.3C31.0905 17.2619 31.0545 16.1116 30.6 15.1C30.6 15.1 29.5 14.8 27.1 16.4C25.0672 15.8705 22.9328 15.8705 20.9 16.4C18.5 14.8 17.4 15.1 17.4 15.1C16.9455 16.1116 16.9095 17.2619 17.3 18.3C16.4675 19.1573 16.0012 20.3049 16 21.5C16 26.1 18.7 27.2 21.5 27.5C20.9 28.1 20.9 28.7 21 29.5V33" stroke="#E6E6E6" stroke-width="2" stroke-linecap="round" stroke-linejoin="round"/><rect x="0.5" y="0.5" width="47" height="47" rx="23.5" stroke="#E6E6E6"/></svg>